<svg xmlns="http://www.w3.org/2000/svg" viewBox="0 0 1200 800" width="1200" height="800" role="img" aria-label="Arquitectura de la infraestructura del area de desarrollo de la FCAV">
<defs>
<linearGradient id="bg" x1="0" y1="0" x2="1" y2="1"><stop offset="0%" stop-color="#0f172a"/><stop offset="100%" stop-color="#1e293b"/></linearGradient>
<linearGradient id="ac" x1="0" y1="0" x2="1" y2="0"><stop offset="0%" stop-color="#3b82f6"/><stop offset="100%" stop-color="#06b6d4"/></linearGradient>
<marker id="ar" viewBox="0 0 10 10" refX="9" refY="5" markerWidth="7" markerHeight="7" orient="auto"><path d="M0 0L10 5L0 10z" fill="#94a3b8"/></marker>
<marker id="arb" viewBox="0 0 10 10" refX="9" refY="5" markerWidth="7" markerHeight="7" orient="auto"><path d="M0 0L10 5L0 10z" fill="#60a5fa"/></marker>
<style>
text{font-family:'Segoe UI',-apple-system,BlinkMacSystemFont,Roboto,Arial,sans-serif}
.t{font-size:17px;font-weight:700;fill:#f8fafc}
.s{font-size:12.5px;fill:#b6c3d6}
.g{font-size:11.5px;font-weight:700;fill:#94a3b8;letter-spacing:1.8px}
.h{font-size:26px;font-weight:700;fill:#f8fafc}
.hs{font-size:14px;fill:#a8b8cc}
.l{font-size:11px;fill:#cbd5e1}
</style>
</defs>
<rect width="1200" height="800" rx="14" fill="url(#bg)"/>
<text x="40" y="52" class="h">Arquitectura de la infraestructura · Área de Desarrollo FCAV</text>
<text x="40" y="78" class="hs">Verificada por inspección directa · 6 servidores · 38 aplicaciones web · 9 servicios de datos e IA</text>
<rect x="40" y="90" width="170" height="4" rx="2" fill="url(#ac)"/>
<text x="40" y="568" class="g">ENTREGA Y OPERACIÓN</text>
<rect x="40" y="138" width="250" height="92" rx="10" fill="#2a1b4d" stroke="#a855f7" stroke-width="1.8"/>
<text x="56" y="166" class="t">Comunidad web y móvil</text>
<text x="56" y="188" class="s">Alumnos, docentes y público</text>
<text x="56" y="206" class="s">desde navegador o app</text>
<rect x="330" y="138" width="250" height="92" rx="10" fill="#2a1b4d" stroke="#a855f7" stroke-width="1.8"/>
<text x="346" y="166" class="t">Kioscos de campus</text>
<text x="346" y="188" class="s">Terminales táctiles</text>
<text x="346" y="206" class="s">interactivas en la facultad</text>
<rect x="620" y="138" width="250" height="92" rx="10" fill="#2a1b4d" stroke="#a855f7" stroke-width="1.8"/>
<text x="636" y="166" class="t">Asistente CALI</text>
<text x="636" y="188" class="s">Consultas en lenguaje natural</text>
<text x="636" y="206" class="s">desde web, kiosco o Discord</text>
<rect x="910" y="138" width="250" height="92" rx="10" fill="#2a1b4d" stroke="#a855f7" stroke-width="1.8"/>
<text x="926" y="166" class="t">Equipo de desarrollo</text>
<text x="926" y="188" class="s">Operación y soporte</text>
<text x="926" y="206" class="s">mediante Discord</text>
<rect x="40" y="278" width="250" height="124" rx="10" fill="#16254d" stroke="#3b82f6" stroke-width="1.8"/>
<text x="56" y="306" class="t">Producción web</text>
<text x="56" y="328" class="s">Windows Server · IIS · 15 apps</text>
<text x="56" y="346" class="s">Portal, Posgrado, Calendario,</text>
<text x="56" y="364" class="s">Bolsa de trabajo, Constancias</text>
<text x="56" y="382" class="s">Widget CALI → API intranet</text>
<rect x="330" y="278" width="250" height="124" rx="10" fill="#16254d" stroke="#3b82f6" stroke-width="1.8"/>
<text x="346" y="306" class="t">Intranet y APIs</text>
<text x="346" y="328" class="s">Windows Server · IIS · 23 apps</text>
<text x="346" y="346" class="s">Biblioteca, Almacén, Aspirantes,</text>
<text x="346" y="364" class="s">Laboratorios, Indicadores</text>
<text x="346" y="382" class="s">Consultas RAG → nodo IA</text>
<rect x="620" y="278" width="250" height="124" rx="10" fill="#0f3a3a" stroke="#14b8a6" stroke-width="1.8"/>
<text x="636" y="306" class="t">Nodo de IA</text>
<text x="636" y="328" class="s">Microservicios nativos</text>
<text x="636" y="346" class="s">Clasificación de riesgos</text>
<text x="636" y="364" class="s">Embeddings y búsqueda</text>
<text x="636" y="382" class="s">semántica (RAG)</text>
<rect x="910" y="278" width="250" height="124" rx="10" fill="#3a2a10" stroke="#f59e0b" stroke-width="1.8"/>
<text x="926" y="306" class="t">Bot de operaciones</text>
<text x="926" y="328" class="s">ChatOps y SecOps 24/7</text>
<text x="926" y="346" class="s">Monitoreo de servicios,</text>
<text x="926" y="364" class="s">recursos y certificados</text>
<text x="926" y="382" class="s">Vigila todos los nodos</text>
<rect x="40" y="448" width="250" height="90" rx="10" fill="#1e293b" stroke="#64748b" stroke-width="1.8"/>
<text x="56" y="476" class="t">Bases de datos</text>
<text x="56" y="498" class="s">SQL Server institucional</text>
<text x="56" y="516" class="s">SQLite de CALI y del bot</text>
<rect x="330" y="448" width="250" height="90" rx="10" fill="#0f3a3a" stroke="#14b8a6" stroke-width="1.8"/>
<text x="346" y="476" class="t">Motor de voz (TTS)</text>
<text x="346" y="498" class="s">Síntesis de voz institucional</text>
<text x="346" y="516" class="s">entre CALI y los kioscos</text>
<rect x="620" y="448" width="250" height="90" rx="10" fill="#0f3a3a" stroke="#14b8a6" stroke-width="1.8"/>
<text x="636" y="476" class="t">Base vectorial</text>
<text x="636" y="498" class="s">Índice semántico de la</text>
<text x="636" y="516" class="s">normativa de la facultad</text>
<rect x="910" y="448" width="250" height="90" rx="10" fill="#1e293b" stroke="#64748b" stroke-width="1.8"/>
<text x="926" y="476" class="t">Almacenamiento FTP</text>
<text x="926" y="498" class="s">Transferencia y archivo</text>
<text x="926" y="516" class="s">de documentos institucionales</text>
<line x1="165" y1="230" x2="165" y2="278" stroke="#60a5fa" stroke-width="1.8" marker-end="url(#arb)"/>
<line x1="455" y1="230" x2="455" y2="278" stroke="#60a5fa" stroke-width="1.8" marker-end="url(#arb)"/>
<line x1="745" y1="230" x2="745" y2="278" stroke="#60a5fa" stroke-width="1.8" marker-end="url(#arb)"/>
<line x1="1035" y1="230" x2="1035" y2="278" stroke="#60a5fa" stroke-width="1.8" marker-end="url(#arb)"/>
<line x1="165" y1="402" x2="165" y2="448" stroke="#94a3b8" stroke-width="1.8" marker-end="url(#ar)"/>
<line x1="455" y1="402" x2="455" y2="448" stroke="#94a3b8" stroke-width="1.8" marker-end="url(#ar)"/>
<line x1="745" y1="402" x2="745" y2="448" stroke="#94a3b8" stroke-width="1.8" marker-end="url(#ar)"/>
<line x1="1035" y1="402" x2="1035" y2="448" stroke="#94a3b8" stroke-width="1.8" stroke-dasharray="6 5" marker-end="url(#ar)"/>
<line x1="290" y1="340" x2="330" y2="340" stroke="#94a3b8" stroke-width="1.8" marker-end="url(#ar)"/>
<line x1="580" y1="340" x2="620" y2="340" stroke="#94a3b8" stroke-width="1.8" marker-end="url(#ar)"/>
<line x1="910" y1="362" x2="870" y2="362" stroke="#94a3b8" stroke-width="1.8" stroke-dasharray="6 5" marker-end="url(#ar)"/>
<rect x="40" y="578" width="1120" height="150" rx="12" fill="#1e293b" stroke="#334155" stroke-width="1.5"/>
<text x="60" y="608" class="t">Ciclo de entrega: ningún cambio llega a producción sin pasar por pruebas</text>
<rect x="60" y="628" width="220" height="72" rx="9" fill="#2a1b4d" stroke="#a855f7" stroke-width="1.6"/>
<text x="74" y="658" class="t" style="font-size:15px">Código en GitHub</text>
<text x="74" y="680" class="s">Un repositorio por sistema</text>
<line x1="280" y1="664" x2="340" y2="664" stroke="#60a5fa" stroke-width="1.8" marker-end="url(#arb)"/>
<rect x="340" y="628" width="220" height="72" rx="9" fill="#3a2a10" stroke="#f59e0b" stroke-width="1.6"/>
<text x="354" y="658" class="t" style="font-size:15px">Servidor de pruebas</text>
<text x="354" y="680" class="s">Homologación obligatoria</text>
<line x1="560" y1="664" x2="620" y2="664" stroke="#60a5fa" stroke-width="1.8" marker-end="url(#arb)"/>
<rect x="620" y="628" width="220" height="72" rx="9" fill="#1e293b" stroke="#64748b" stroke-width="1.6"/>
<text x="634" y="658" class="t" style="font-size:15px">Aviso de despliegue</text>
<text x="634" y="680" class="s">Registro en Discord</text>
<line x1="840" y1="664" x2="900" y2="664" stroke="#60a5fa" stroke-width="1.8" marker-end="url(#arb)"/>
<rect x="900" y="628" width="220" height="72" rx="9" fill="#16254d" stroke="#3b82f6" stroke-width="1.6"/>
<text x="914" y="658" class="t" style="font-size:15px">Producción</text>
<text x="914" y="680" class="s">Web, intranet, IA</text>
<text x="40" y="754" class="g">LEYENDA</text>
<rect x="140" y="742" width="16" height="16" rx="4" fill="#16254d" stroke="#3b82f6" stroke-width="1.6"/>
<text x="164" y="755" class="l" style="font-size:12px">Aplicación web</text>
<rect x="292" y="742" width="16" height="16" rx="4" fill="#0f3a3a" stroke="#14b8a6" stroke-width="1.6"/>
<text x="316" y="755" class="l" style="font-size:12px">Inteligencia artificial</text>
<rect x="507" y="742" width="16" height="16" rx="4" fill="#2a1b4d" stroke="#a855f7" stroke-width="1.6"/>
<text x="531" y="755" class="l" style="font-size:12px">Usuarios y equipo</text>
<rect x="680" y="742" width="16" height="16" rx="4" fill="#3a2a10" stroke="#f59e0b" stroke-width="1.6"/>
<text x="704" y="755" class="l" style="font-size:12px">Operación</text>
<rect x="797" y="742" width="16" height="16" rx="4" fill="#1e293b" stroke="#64748b" stroke-width="1.6"/>
<text x="821" y="755" class="l" style="font-size:12px">Infraestructura</text>
<text x="1160" y="788" class="l" text-anchor="end" style="font-size:10.5px">Sin direcciones IP ni nombres de host por seguridad</text>
</svg>